<svg width="60" height="60" fill="none" xmlns="http://www.w3.org/2000/svg"><g clip-path="url(#clip0_0_273)" fill="#017149"><path d="M53.879 4.066h-39.37a.888.888 0 00-.884.891c0 .493.396.892.884.892h39.37c2.269 0 4.115 1.86 4.115 4.148v5.27c0 .493.396.892.884.892a.888.888 0 00.884-.891V9.997c0-3.27-2.64-5.93-5.883-5.93z"/><path d="M58.878 17.347a.888.888 0 00-.884.89v5.247c0 .959-.774 1.74-1.726 1.74h-1.071v-3.26c0-1.961-1.584-3.557-3.53-3.557H8.333c-1.946 0-3.53 1.596-3.53 3.557v3.26h-1.07a1.736 1.736 0 01-1.727-1.74V9.997c0-2.287 1.846-4.148 4.116-4.148h4.91a.888.888 0 00.884-.892.888.888 0 00-.884-.89h-4.91c-3.244 0-5.884 2.66-5.884 5.93v13.487c0 1.942 1.568 3.522 3.494 3.522h52.536c1.927 0 3.494-1.58 3.494-3.522v-5.246a.888.888 0 00-.884-.891zm-48.135 7.877H6.572v-3.26c0-.978.79-1.775 1.76-1.775h2.411v5.035zm7.35 0H12.51v-5.035h5.582v5.034zm7.349 0H19.86v-5.035h5.582v5.035zm7.349 0H27.21v-5.035h5.58v5.035zm7.349 0h-5.581v-5.035h5.58v5.035zm7.35 0h-5.582v-5.035h5.581v5.035zm5.939 0h-4.172v-5.035h2.41a1.77 1.77 0 011.761 1.775v3.26z"/><path d="M9.633 9.06c-1.717 0-3.113 1.408-3.113 3.14 0 1.73 1.396 3.138 3.113 3.138s3.114-1.408 3.114-3.139c0-1.73-1.397-3.138-3.114-3.138zm0 4.495A1.353 1.353 0 018.288 12.2c0-.748.603-1.356 1.345-1.356s1.346.608 1.346 1.356c0 .748-.604 1.356-1.346 1.356zm10.617-2.247a.888.888 0 00-.885.891c0 .748-.603 1.356-1.345 1.356a1.352 1.352 0 01-1.346-1.356c0-.748.604-1.356 1.346-1.356a.888.888 0 00.884-.891.888.888 0 00-.884-.891c-1.717 0-3.114 1.407-3.114 3.138 0 1.73 1.397 3.139 3.114 3.139 1.716 0 3.113-1.408 3.113-3.139a.887.887 0 00-.884-.891zm10.573 37.759a.884.884 0 00-1.09.615c-.14.498-.332.908-.534 1.341-.437.938-.933 2-.933 4.018 0 .492.395.892.884.892.488 0 .884-.4.884-.892 0-1.62.354-2.38.765-3.259.224-.48.456-.976.635-1.615a.892.892 0 00-.61-1.1zm-.024-5.319c-.41-.88-.765-1.64-.765-3.26 0-1.62.355-2.38.765-3.259.437-.937.933-2 .933-4.018a.888.888 0 00-.884-.89.888.888 0 00-.884.89c0 1.62-.354 2.38-.765 3.26-.437.936-.933 1.999-.933 4.017 0 2.019.496 3.08.933 4.018.308.66.575 1.231.697 2.149a.887.887 0 00.995.764.89.89 0 00.758-1.002c-.16-1.19-.526-1.976-.85-2.67zm14.524-3.26c0-1.62.354-2.38.765-3.259.437-.937.934-2 .934-4.018a.888.888 0 00-.884-.89.888.888 0 00-.885.89c0 1.62-.354 2.38-.765 3.26-.437.936-.933 1.999-.933 4.017 0 2.019.496 3.08.933 4.018.41.88.765 1.64.765 3.26 0 1.62-.354 2.38-.765 3.259-.437.937-.933 2-.933 4.018 0 .492.395.891.884.891a.887.887 0 00.884-.89c0-1.621.354-2.38.765-3.26.437-.937.934-2 .934-4.018 0-2.019-.496-3.081-.934-4.018-.41-.88-.765-1.64-.765-3.26zm-30.576 0c0-1.62.354-2.38.765-3.259.437-.937.933-2 .933-4.018a.888.888 0 00-.884-.89.888.888 0 00-.884.89c0 1.62-.354 2.38-.765 3.26-.437.936-.934 1.999-.934 4.017 0 2.019.497 3.08.934 4.018.41.88.765 1.64.765 3.26 0 1.62-.354 2.38-.765 3.259-.437.937-.934 2-.934 4.018 0 .492.396.891.885.891a.888.888 0 00.884-.891c0-1.62.354-2.38.765-3.26.437-.937.933-1.999.933-4.017 0-2.019-.495-3.081-.933-4.019-.41-.88-.765-1.639-.765-3.259z"/></g><defs><clipPath id="clip0_0_273"><path fill="#fff" transform="translate(.238)" d="M0 0h59.524v60H0z"/></clipPath></defs></svg>