<svg width="60" height="60" fill="none" xmlns="http://www.w3.org/2000/svg"><path d="M40.733 37.512a.879.879 0 10-.903 1.508c.97.58 1.504 1.214 1.504 1.782 0 1.595-4.312 3.819-11.333 3.819-7.022 0-11.333-2.224-11.333-3.819 0-1.594 4.311-3.818 11.333-3.818 2.232 0 4.402.24 6.275.691a.879.879 0 10.412-1.708c-2.005-.484-4.318-.74-6.687-.74-6.346 0-13.09 1.954-13.09 5.576 0 3.621 6.744 5.575 13.09 5.575s13.09-1.954 13.09-5.576c0-.856-.408-2.123-2.358-3.29z" fill="#017149"/><path d="M50.886 15.759c-5.593-1.985-13.01-3.077-20.886-3.077-7.876 0-15.293 1.093-20.886 3.077C3.237 17.844 0 20.733 0 23.894v22.545c0 .486.394.88.879.88H14.03a.879.879 0 00.76-1.323l-3.551-6.087c.935-4.8 9.174-8.56 18.761-8.56 4.884 0 9.526.954 13.072 2.688 3.253 1.59 5.26 3.668 5.689 5.873l-3.55 6.086a.879.879 0 00.759 1.322h13.15a.879.879 0 00.88-.878V23.894c0-3.16-3.237-6.05-9.114-8.135zm7.347 7.913l-1.82 3.12c-.683-1.184-1.813-2.297-3.387-3.323a.879.879 0 10-.96 1.473c1.793 1.168 2.906 2.455 3.245 3.739l-2.394 4.105c-.864-1.99-2.814-3.807-5.71-5.289l4.399-9.585c4.089 1.66 6.466 3.716 6.627 5.76zm-15.087 8.46c-1.962-.876-4.196-1.54-6.586-1.97l.482-3.928c2.887.442 5.55 1.158 7.838 2.12l-1.734 3.778zm-26.413-5.334a.88.88 0 001.096.586 37.225 37.225 0 015.13-1.147l.482 3.927c-2.391.43-4.625 1.095-6.586 1.97l-4.314-9.4.069-.025c2.801-1 6.095-1.735 9.65-2.171l.484 3.954c-1.904.29-3.727.695-5.425 1.21a.88.88 0 00-.586 1.096zM4.688 28.68c.502-1.907 2.733-3.794 6.216-5.299l1.89 4.117c-2.895 1.483-4.846 3.301-5.71 5.29L4.688 28.68zm16.877-13.797l.48 3.912c-3.685.452-7.108 1.218-10.026 2.26-.072.025-.142.052-.213.078l-1.76-3.835c3.296-1.132 7.23-1.951 11.519-2.415zm2.442 5.468A64.977 64.977 0 0130 20.076c2.044 0 4.052.093 5.993.272l-.48 3.911A49.378 49.378 0 0030 23.954c-1.873 0-3.721.105-5.513.308l-.48-3.912zm13.734.186c3.586.438 6.896 1.183 9.718 2.199l-1.846 4.021c-2.443-1.033-5.284-1.8-8.357-2.267l.485-3.953zm12.213-3.24l-1.76 3.835c-2.971-1.085-6.463-1.877-10.239-2.339l.48-3.91c4.288.464 8.223 1.283 11.519 2.415zm-13.27-2.581l-.477 3.889A66.85 66.85 0 0030 18.318c-2.109 0-4.19.098-6.207.287l-.478-3.89A80.187 80.187 0 0130 14.44c2.282 0 4.521.094 6.685.275zm-28.29 3.197l1.776 3.87c-3.217 1.396-5.476 3.122-6.579 5.017l-1.824-3.127c.161-2.044 2.538-4.1 6.627-5.76zM1.758 45.56V27.145L12.5 45.56H1.758zm8.313-7.652l-1.73-2.968c.12-2.12 1.944-4.173 5.186-5.844l1.752 3.818c-2.517 1.386-4.303 3.105-5.208 4.994zm15.108-8.01l-.478-3.892A47.47 47.47 0 0130 25.712c1.81 0 3.587.1 5.3.29l-.479 3.894a38.077 38.077 0 00-9.642.001zm19.542 3.016l1.752-3.817c3.199 1.657 5.061 3.747 5.187 5.844l-1.731 2.966c-.902-1.887-2.686-3.603-5.208-4.993zM58.242 45.56H47.5l10.742-18.415V45.56z" fill="#017149"/></svg>