<svg width="60" height="60" fill="none" xmlns="http://www.w3.org/2000/svg"><g clip-path="url(#clip0_0_221)" fill="#017149"><path d="M56.329 40.734H24.363l-2.496-1.861a3.58 3.58 0 001.52-1.19 3.61 3.61 0 00-.745-5.028L15.85 27.59A.879.879 0 1014.8 29l6.791 5.064a1.85 1.85 0 01.382 2.575 1.83 1.83 0 01-1.213.729c-.49.073-.978-.05-1.375-.346l-10.67-7.958a1.83 1.83 0 01-.741-1.453 1.832 1.832 0 01.705-1.474 1.827 1.827 0 011.14-.395c.4 0 .782.127 1.102.366l.589.44a.879.879 0 101.052-1.41l-.59-.44a3.578 3.578 0 00-2.154-.714c-.803 0-1.594.274-2.226.77a3.573 3.573 0 00-1.357 2.461l-.37-.276a3.648 3.648 0 00-2.724-.69 3.647 3.647 0 00-2.414 1.438 3.676 3.676 0 00.748 5.138L20.95 47.348c.318.238.675.42 1.051.544l-3.299 10.353a.879.879 0 00.838 1.146h4.404a.879.879 0 00.768-.452l6.043-10.862h14.883l1.891 3.4a.879.879 0 101.536-.855l-1.415-2.545h4.955l3.045 9.556h-2.685l-1.906-3.428a.879.879 0 00-1.537.855l2.158 3.879a.878.878 0 00.768.451h4.404a.879.879 0 00.838-1.145l-3.24-10.168h1.879a3.675 3.675 0 003.67-3.671 3.675 3.675 0 00-3.67-3.672zM23.427 57.633h-2.685l3.045-9.556h4.956l-5.316 9.556zM56.33 46.319H23.145c-.41 0-.816-.135-1.144-.38L2.526 31.417a1.916 1.916 0 01-.39-2.678c.599-.836 1.862-1.023 2.678-.39l18.732 13.97a.879.879 0 00.525.174H56.33c1.055 0 1.913.858 1.913 1.914a1.916 1.916 0 01-1.913 1.913zm-9.112-20.145C54.266 26.174 60 20.44 60 13.392c0-2.31-.623-4.572-1.8-6.542a.879.879 0 10-1.51.902 10.989 10.989 0 011.552 5.64c0 6.079-4.946 11.024-11.024 11.024-6.08 0-11.025-4.946-11.025-11.024 0-6.08 4.946-11.025 11.025-11.025 2.576 0 5.082.907 7.056 2.554a.879.879 0 101.127-1.35A12.795 12.795 0 0047.218.61c-7.049 0-12.783 5.734-12.783 12.783 0 7.048 5.734 12.782 12.783 12.782z"/><path d="M47.217 4.623c-4.834 0-8.768 3.933-8.768 8.768 0 4.835 3.934 8.769 8.768 8.769 4.835 0 8.769-3.934 8.769-8.769s-3.934-8.768-8.769-8.768zm.88 15.722v-.46a.879.879 0 10-1.758 0v.46a7.022 7.022 0 01-6.075-6.075h.46a.879.879 0 100-1.758h-.46a7.022 7.022 0 016.075-6.074v.46a.879.879 0 101.757 0v-.46a7.022 7.022 0 016.075 6.074h-.46a.879.879 0 100 1.758h.46a7.022 7.022 0 01-6.075 6.075z"/><path d="M48.996 12.512h-.9V9.47a.879.879 0 10-1.758 0v3.922c0 .486.393.88.879.88h1.78a.879.879 0 000-1.759z"/></g><defs><clipPath id="clip0_0_221"><path fill="#fff" d="M0 0h60v60H0z"/></clipPath></defs></svg>