<svg width="60" height="60" fill="none" xmlns="http://www.w3.org/2000/svg"><g clip-path="url(#clip0_0_146)" fill="#017149"><path d="M32.67 36.92a.998.998 0 001.277-.61 1 1 0 00-.61-1.276C26.556 32.639 22 26.195 22 19c0-.37.011-.709.032-1.045 1.91.232 2.106 1.252 2.342 2.503.19.998.543 2.856 2.77 2.532 1.388-.203 2.592-1.029 3.39-2.324.9-1.46 1.19-3.379.706-4.708.112-.174.853-.44 1.596-.222.734.217.819.727.819 1.092 0 1.368-.268 2.794-.484 3.94-.328 1.742-.545 2.893.157 3.594.116.117.3.26.526.425.998.732 2.505 1.837 1.227 4.82-.94 2.191-1.115 5.4 3.386 8.239A.996.996 0 0039 38c10.477 0 19-8.523 19-19 0-.339-.01-.676-.027-1.01-.03-.552-.505-.987-1.05-.946a1 1 0 00-.948 1.05c.015.301.024.602.024.906 0 9.276-7.468 16.842-16.708 16.998-3.326-2.203-2.953-4.247-2.372-5.604 1.904-4.443-.846-6.46-1.881-7.22-.066-.048-.127-.09-.18-.13-.011-.368.154-1.247.279-1.906.23-1.228.518-2.756.518-4.31 0-1.3-.662-2.34-1.816-2.85-1.285-.568-3.003-.36-3.917.471-.602.547-.811 1.323-.56 2.074.24.72.135 2.014-.53 3.094-.341.554-.961 1.245-1.976 1.393-.174.026-.256.013-.264.02-.098-.127-.191-.618-.252-.945-.277-1.46-.792-4.18-5.215-4.18-.047 0-.088.021-.134.027-.068.01-.135.017-.199.041-.06.021-.11.052-.164.084a.955.955 0 00-.16.108c-.048.042-.084.091-.123.142a.94.94 0 00-.106.157c-.03.06-.046.125-.063.191-.012.045-.037.082-.043.13A17.364 17.364 0 0020 19c0 8.042 5.092 15.243 12.67 17.92z"/><path d="M21.69 13.942a.998.998 0 001.276-.61C25.362 6.555 31.806 2 39 2c1.123 0 2.24.11 3.334.327-.009.607.057 1.255.12 1.89.059.58.152 1.518.073 1.89-1.975.698-3.387 1.919-3.886 3.37-.366 1.064-.21 2.183.435 3.153.338.507.634 1.08.919 1.632.595 1.152 1.37 2.654 2.607 2.654.264 0 .548-.068.856-.222.772-.387 1.269-1.272 1.793-2.208.506-.905 1.137-2.031 1.749-2.031.352 0 .486.065.754 1.332.18.85.404 1.91 1.35 2.382 1.314.659 5.38.012 7.664-.96.042-.017.069-.05.107-.073a.948.948 0 00.163-.112.946.946 0 00.126-.144c.038-.051.074-.1.103-.158a.885.885 0 00.06-.18.908.908 0 00.036-.186c.005-.064-.003-.128-.011-.194-.006-.045.002-.088-.01-.133a19.023 19.023 0 00-9.9-12.054.999.999 0 10-.89 1.791c4.09 2.03 7.16 5.62 8.576 9.922-2.071.67-4.603.894-5.106.708-.121-.12-.24-.685-.311-1.023-.216-1.02-.617-2.918-2.711-2.918-1.785 0-2.732 1.693-3.494 3.054-.236.419-.61 1.088-.855 1.326-.248-.27-.621-.991-.879-1.49-.295-.574-.631-1.224-1.032-1.824-.301-.452-.371-.92-.208-1.394.304-.884 1.349-1.698 2.794-2.178 1.465-.486 1.28-2.317 1.118-3.932-.081-.805-.173-1.717-.054-2.258a1 1 0 00-.733-1.184A19.055 19.055 0 0038.999 0c-8.039 0-15.24 5.09-17.918 12.666a.999.999 0 00.61 1.276zm25.474 6.268c-1.202 0-2.025.726-2.688 1.309-.3.264-.711.626-.9.626a.346.346 0 01-.13-.04c-.916-.459-2.028.13-2.556 1.407-.378.91-.498 2.294.402 3.194 1.745 1.745 3.285 2.11 4.27 2.11 1.574 0 2.87-.957 3.386-2.501.173-.523.472-.991.761-1.444.567-.888 1.518-2.375-.088-3.654-.85-.677-1.653-1.006-2.457-1.006zm.86 3.585c-.322.503-.721 1.13-.974 1.888-.243.73-.773 1.134-1.488 1.134-.858 0-1.873-.542-2.856-1.525-.078-.079-.116-.266-.1-.489a1.79 1.79 0 01.26-.777c.235.079.473.12.71.12.943 0 1.623-.599 2.222-1.126.472-.416.919-.809 1.366-.809.328 0 .737.192 1.212.57.088.071.125.117.135.12-.022.164-.3.602-.488.894zm11.438 18.204a3.973 3.973 0 00-2.429-1.863c-1.033-.277-2.109-.135-2.972.366l-11.51 5.602C40.764 47 38.957 47 35 47c-3.87 0-9.776-.977-9.836-.986a.998.998 0 10-.328 1.971C25.084 48.026 30.964 49 35 49c4.15 0 6.234 0 8.435-1.101L55 42.267c.462-.268 1-.34 1.517-.2.515.139.947.47 1.214.932a1.994 1.994 0 01-.76 2.749l-13.52 8.415c-.029.019-2.914 1.836-9.45 1.836-5.67 0-14.427-4.826-14.553-4.894-.091-.046-2.26-1.106-6.447-1.106a1 1 0 100 2c3.637 0 5.51.874 5.515.874.378.21 9.297 5.125 15.485 5.125 7.218 0 10.42-2.08 10.526-2.15l13.472-8.385a3.97 3.97 0 001.864-2.43 3.97 3.97 0 00-.4-3.034zM5 53.5c0-.827-.673-1.5-1.5-1.5S2 52.673 2 53.5 2.673 55 3.5 55 5 54.327 5 53.5z"/><path d="M13 38h8c1.167 0 3.15 1.488 4.9 2.8 2.194 1.646 4.267 3.2 6.1 3.2h5.998c1.52 0 2.273.689 2.293.707a.997.997 0 001.414 0 .999.999 0 000-1.414C41.573 43.16 40.345 42 37.998 42H32c-1.167 0-3.15-1.488-4.9-2.8-2.194-1.646-4.267-3.2-6.1-3.2h-8a1 1 0 100 2zm-6-6H1a1 1 0 100 2h6a1 1 0 011 1v22a1 1 0 01-1 1H1a1 1 0 100 2h6c1.654 0 3-1.347 3-3V35c0-1.654-1.346-3-3-3z"/></g><defs><clipPath id="clip0_0_146"><path fill="#fff" d="M0 0h60v60H0z"/></clipPath></defs></svg>