<svg width="60" height="60" fill="none" xmlns="http://www.w3.org/2000/svg"><path d="M30 17.5c4.824 0 8.75-3.926 8.75-8.75S34.824 0 30 0s-8.75 3.926-8.75 8.75S25.176 17.5 30 17.5zm0-15a6.257 6.257 0 016.25 6.25A6.257 6.257 0 0130 15a6.256 6.256 0 01-6.25-6.25A6.257 6.257 0 0130 2.5z" fill="#017149"/><path d="M52.513 32.501c.012-.83.029-1.632.048-2.375.13-5.11.178-8.605-2.969-12.21A3.703 3.703 0 0050 16.25a3.754 3.754 0 00-3.75-3.75 3.754 3.754 0 00-3.75 3.75A3.754 3.754 0 0046.25 20a3.71 3.71 0 001.55-.345c2.425 2.855 2.385 5.649 2.261 10.406-.02.763-.037 1.586-.048 2.439H47.5v-2.238a7.504 7.504 0 00-4.062-6.684C40.29 21.946 35.405 20 30 20c-5.405 0-10.29 1.946-13.438 3.578a7.504 7.504 0 00-4.062 6.684V32.5h-2.405a202.14 202.14 0 00-.049-2.439c-.123-4.757-.163-7.55 2.262-10.406.473.217.995.345 1.55.345a3.754 3.754 0 003.75-3.75 3.754 3.754 0 00-3.75-3.75 3.754 3.754 0 00-3.75 3.75c0 .601.155 1.162.407 1.666-3.146 3.605-3.098 7.1-2.969 12.21.02.743.037 1.544.048 2.374H7.5c-2.756 0-5 2.242-5 5v5c0 2.758 2.244 5 5 5h.225l2.3 11.495a1.25 1.25 0 102.45-.49l-2.2-11.005h39.45l-2.2 11.005A1.248 1.248 0 0048.752 60a1.25 1.25 0 001.224-1.005L52.275 47.5h.225c2.756 0 5-2.242 5-5v-5a5.005 5.005 0 00-4.987-4.999zM46.25 17.5c-.688 0-1.25-.56-1.25-1.25S45.562 15 46.25 15a1.251 1.251 0 010 2.5zM13.858 15c.688 0 1.25.56 1.25 1.25s-.562 1.25-1.25 1.25a1.251 1.251 0 010-2.5zM15 30.262a5.01 5.01 0 012.715-4.465C20.613 24.293 25.1 22.5 30 22.5s9.387 1.793 12.285 3.297A5.01 5.01 0 0145 30.262V32.5H15v-2.238zM55 42.5c0 1.378-1.12 2.5-2.5 2.5h-45C6.12 45 5 43.878 5 42.5v-5C5 36.122 6.12 35 7.5 35h45c1.38 0 2.5 1.122 2.5 2.5v5z" fill="#017149"/></svg>