<svg width="60" height="60" fill="none" xmlns="http://www.w3.org/2000/svg"><path d="M58.199 37.592V6.528a2.16 2.16 0 001.8-2.127c0-1.19-.968-2.159-2.158-2.159H2.159A2.163 2.163 0 000 4.402a2.16 2.16 0 001.801 2.126v31.064A2.16 2.16 0 000 39.719c0 1.19.969 2.159 2.16 2.159h17.27l-8.038 15.116a.52.52 0 00.917.488l8.29-15.604h9.551v15.36a.52.52 0 101.04 0v-15.36h9.54l8.3 15.604a.52.52 0 00.918-.488L41.91 41.878h15.93c1.191 0 2.16-.969 2.16-2.16a2.16 2.16 0 00-1.801-2.126zm-55.36-2.05H9.9a.52.52 0 100-1.04H2.84V9.33h8.877a.52.52 0 100-1.039H2.84v-1.73h54.32v26.475H39.595a.52.52 0 100 1.04H57.16v3.483H2.84v-2.017zm-1.8-31.14c0-.618.502-1.121 1.12-1.121h55.682a1.12 1.12 0 010 2.24H2.159a1.12 1.12 0 01-1.12-1.12zM57.84 40.838H2.159a1.122 1.122 0 010-2.24h55.682a1.12 1.12 0 010 2.24z" fill="#017149"/><path d="M18.572 10.893C12.356 10.893 7.3 15.95 7.3 22.166c0 6.216 5.057 11.274 11.273 11.274 6.216 0 11.274-5.058 11.274-11.274 0-6.216-5.058-11.273-11.274-11.273zm-.52 1.051v9.81L8.5 23.971a10.244 10.244 0 01-.162-1.806c0-5.47 4.312-9.95 9.715-10.222zm-9.317 13.04l8.662-2.012-4.994 7.354a10.266 10.266 0 01-3.668-5.342zm9.837 7.417c-1.943 0-3.761-.545-5.31-1.49l5.518-8.126 9.3 3.163c-1.508 3.776-5.2 6.453-9.508 6.453zm9.843-7.436l-9.323-3.171v-9.85c5.403.272 9.715 4.753 9.715 10.222a10.2 10.2 0 01-.392 2.799zm6.225-8.024h16.315a.52.52 0 000-1.039H34.64a.52.52 0 100 1.04zm16.834 8.647a.52.52 0 00-.52-.52H34.642a.52.52 0 100 1.04h16.314a.52.52 0 00.52-.52z" fill="#017149"/></svg>