<svg width="60" height="60" fill="none" xmlns="http://www.w3.org/2000/svg"><path d="M49.092 15.15h-8.486V9.694c0-1-.813-1.819-1.818-1.819h-6.971v-4.24h6.665a1.82 1.82 0 000-3.637h-8.465L30 .001h-8.487c-.998 0-1.817.819-1.817 1.819a1.82 1.82 0 001.818 1.818h6.67v4.24H21.21a1.822 1.822 0 00-1.818 1.818v5.454H10.91c-1 0-1.818.82-1.818 1.818v41.215c0 1.008.818 1.818 1.817 1.818h38.183c1 0 1.818-.81 1.818-1.818V16.967c0-1-.818-1.818-1.818-1.818zM21.21 18.785a1.818 1.818 0 001.818-1.819v-5.454H36.97v5.454c0 1.007.813 1.819 1.818 1.819h8.485v13.33H12.727v-13.33h8.483zm-8.483 37.577v-20.61h34.546v20.61H12.727zm13.233-11.52a3.03 3.03 0 11-6.057 0 3.028 3.028 0 013.032-3.024 3.027 3.027 0 013.025 3.025zm9.09-1.207a1.82 1.82 0 01-1.819 1.819 1.82 1.82 0 01-1.817-1.819c0-1.009.815-1.817 1.817-1.817 1.005 0 1.818.808 1.818 1.817zm8.792-.61a2.727 2.727 0 11-5.455-.002 2.727 2.727 0 015.455.001zm-2.123 9.395a2.727 2.727 0 11-5.455 0 2.727 2.727 0 015.455 0z" fill="#017149"/></svg>