<svg width="60" height="60" fill="none" xmlns="http://www.w3.org/2000/svg"><path d="M48.85 0H11.152c-2.735 0-4.96 2.243-4.96 5v16c0 .552.444 1 .991 1H48.85a.996.996 0 00.992-1c0-.552-.444-1-.992-1H8.176V5c0-1.654 1.335-3 2.976-3H48.85c1.641 0 2.976 1.346 2.976 3v46c0 1.654-1.335 3-2.976 3a.996.996 0 00-.992 1v3H12.144v-2h32.738a.996.996 0 00.992-1c0-.552-.445-1-.992-1h-33.73c-1.641 0-2.976-1.346-2.976-3V25c0-.552-.445-1-.992-1a.996.996 0 00-.992 1v26a4.999 4.999 0 003.968 4.899V59c0 .552.444 1 .992 1H48.85a.996.996 0 00.992-1v-3.101A4.998 4.998 0 0053.81 51V5c0-2.757-2.225-5-4.96-5z" fill="#017149"/><path d="M10.16 11v4c0 1.654 1.335 3 2.976 3s2.977-1.346 2.977-3v-4c0-1.654-1.336-3-2.977-3-1.64 0-2.976 1.346-2.976 3zm3.969 0v4c0 .551-.446 1-.992 1a.998.998 0 01-.993-1v-4c0-.551.446-1 .992-1 .547 0 .993.449.993 1zm34.721 3a.996.996 0 00.992-1V9c0-.552-.445-1-.993-1a.996.996 0 00-.992 1v4c0 .552.445 1 .992 1zm0-7a.996.996 0 00.991-1c0-1.103-.89-2-1.984-2a.996.996 0 00-.992 1c0 .552.445.999.992.999V6c0 .552.445 1 .992 1zM16.113 37V27c0-1.654-1.336-3-2.977-3-1.64 0-2.976 1.346-2.976 3v10c0 1.654 1.335 3 2.976 3s2.977-1.346 2.977-3zm-3.969 0V27c0-.551.446-1 .992-1 .547 0 .992.449.992 1v10c0 .551-.445 1-.992 1a.998.998 0 01-.992-1z" fill="#017149"/></svg>