<svg width="60" height="60" fill="none" xmlns="http://www.w3.org/2000/svg"><g clip-path="url(#clip0_0_130)" fill="#017149"><path d="M54.283 12.15C54.131 12.116 38.92 8.419 30.874.36l-.03-.03A1.22 1.22 0 0030.01 0h-.023a1.22 1.22 0 00-.832.33h-.001l-.03.03C21.09 8.407 5.87 12.114 5.716 12.15c-.551.132-.94.625-.94 1.192v21.909c0 4.283 1.288 7.904 3.939 11.07 2.452 2.927 5.755 5.061 8.662 6.763a453.577 453.577 0 0012.034 6.77c.178.096.378.146.58.146h.017c.203 0 .402-.05.58-.147.06-.032 6.045-3.263 12.034-6.769 2.908-1.702 6.21-3.836 8.663-6.764 2.65-3.165 3.939-6.786 3.939-11.07V13.343c0-.567-.39-1.06-.94-1.191zm-1.508 23.1c0 8.354-5.88 12.495-11.39 15.721A450.322 450.322 0 0130 57.387a454.05 454.05 0 01-11.386-6.416c-5.51-3.226-11.39-7.367-11.39-15.72V14.29C10.655 13.37 22.49 9.816 30 2.914c7.509 6.902 19.344 10.456 22.775 11.379V35.25z"/><path d="M40.91 19.09c-6.015-6.016-15.803-6.016-21.819 0a15.42 15.42 0 00-2.383 18.75 1.225 1.225 0 002.11-1.246 12.971 12.971 0 012.005-15.772c5.06-5.061 13.295-5.061 18.355 0 5.061 5.06 5.061 13.295 0 18.355a12.971 12.971 0 01-15.772 2.006 1.225 1.225 0 00-1.246 2.108 15.37 15.37 0 007.831 2.142c3.99 0 7.942-1.548 10.92-4.524 6.015-6.015 6.015-15.803 0-21.82z"/><path d="M20.821 39.177l-.01-.01A1.225 1.225 0 0019.08 40.9l.01.01a1.221 1.221 0 001.732 0 1.225 1.225 0 000-1.732zm18.925-15.553a1.224 1.224 0 00-1.732 0L27.86 33.78l-5.873-5.874a1.225 1.225 0 00-1.732 1.732l6.739 6.74a1.225 1.225 0 001.732 0l11.02-11.021a1.224 1.224 0 000-1.732z"/></g><defs><clipPath id="clip0_0_130"><path fill="#fff" d="M0 0h60v60H0z"/></clipPath></defs></svg>