<?xml version="1.0" encoding="utf-8"?><svg viewBox="0 0 38 33" xmlns="http://www.w3.org/2000/svg" xmlns:xlink="http://www.w3.org/1999/xlink"><style>:root>svg{display:none}:root>svg:target{display:block}</style><svg viewBox="0 0 33 33" id="instagram" xmlns="http://www.w3.org/2000/svg"><path d="M28.166.5H4.167c-2.26 0-4 1.741-4 4v24c0 2.257 1.74 4 4 4h23.999c2.257 0 4-1.741 4-4v-24c0-2.259-1.743-4-4-4ZM16.19 10.214c3.55 0 6.424 2.787 6.424 6.225 0 3.437-2.875 6.226-6.424 6.226-3.547 0-6.422-2.789-6.422-6.226 0-3.438 2.877-6.225 6.422-6.225ZM28.166 27.5c0 .702-.3 1-1 1H5.167c-.7 0-1-.298-1-1v-14l2.493.543a9.313 9.313 0 0 0-.413 2.745c0 5.319 4.454 9.634 9.943 9.634 5.491 0 9.943-4.313 9.943-9.634 0-.954-.144-1.875-.412-2.745l2.445-.542v14Zm0-17.998a1 1 0 0 1-1 1h-4a1 1 0 0 1-1-1v-4a1 1 0 0 1 1-1h4a1 1 0 0 1 1 1v4Z"/></svg><svg viewBox="0 0 33 33" id="telegram" xmlns="http://www.w3.org/2000/svg"><path d="M29.485 4.128 2.195 14.314a1 1 0 0 0-.136 1.81l6.194 3.447 1.725 7.679a1 1 0 0 0 1.473.649l5.563-3.185 7.52 4.967a1 1 0 0 0 1.532-.639L30.815 5.26a1 1 0 0 0-1.33-1.132Z"/><path d="M23.666 10.429 11.29 18.09a.2.2 0 0 0-.089.216l1.108 4.643a.2.2 0 0 0 .375.04l1.014-2.125a.2.2 0 0 1 .04-.056L23.912 10.74c.17-.168-.043-.438-.245-.312Z"/></svg><svg viewBox="0 0 31 33" id="whatsapp" xmlns="http://www.w3.org/2000/svg"><path d="M13.964 17.337c-.765-.707-1.614-1.7-1.983-2.58-.057-.112-.17-.396 0-.623.34-.453.396-.482.765-.907.255-.313.453-.595.37-.85L11.84 9.06c-.115-.227-.453-.254-.851-.283-.34 0-.707 0-.963.056-.568.198-1.727 1.729-1.87 2.834-.312 2.409 1.87 5.612 4.051 7.595 2.181 2.013 5.552 3.912 7.931 3.372 1.105-.254 2.522-1.53 2.634-2.125.057-.254.03-.623-.029-.963-.029-.396-.113-.68-.34-.793l-2.888-1.332c-.257-.142-.511-.03-.766.283-.31.426-.454.595-.821 1.05-.198.254-.34.425-.566.452-.256.056-.594-.085-.652-.085-.907-.31-1.954-1.075-2.747-1.784ZM4.446 27.514l1.643-4.167a11.976 11.976 0 0 1-2.92-7.851c0-6.632 5.383-11.99 12.013-11.99 6.628 0 11.981 5.358 11.981 11.99 0 6.631-5.353 12.018-11.981 12.018-2.663 0-5.1-.851-7.082-2.324l-3.654 2.324ZM2.433 23.43.167 32.5l8.102-3.685a14.946 14.946 0 0 0 6.913 1.702c8.271 0 14.984-6.717 14.984-15.023C30.166 7.219 23.451.5 15.182.5 6.882.5.168 7.217.168 15.494c0 2.921.85 5.643 2.265 7.937Z"/></svg><svg viewBox="0 0 38 28" id="youtube" xmlns="http://www.w3.org/2000/svg"><path d="M35.325 2.514c1.108 1.165 1.471 3.811 1.471 3.811s.37 3.105.37 6.21v2.914c0 3.107-.37 6.214-.37 6.214s-.363 2.644-1.471 3.81c-1.268 1.377-2.673 1.52-3.468 1.6l-.24.026c-5.176.39-12.95.401-12.95.401s-9.62-.09-12.581-.387a7.898 7.898 0 0 0-.503-.072c-.938-.117-2.41-.3-3.577-1.568-1.108-1.166-1.47-3.81-1.47-3.81s-.37-3.105-.37-6.214v-2.912c0-3.105.37-6.212.37-6.212s.362-2.646 1.47-3.811c1.27-1.38 2.677-1.519 3.473-1.6l.234-.025C10.893.5 18.658.5 18.658.5h.015s7.768 0 12.944.39c.08.008.158.017.238.024.793.079 2.2.22 3.47 1.6ZM14.848 8.195v10.787l9.995-5.376-9.995-5.411Z"/></svg></svg>