<svg width="60" height="60" fill="none" xmlns="http://www.w3.org/2000/svg"><path d="M15.191 15.326c-1.932 0-3.504 1.584-3.504 3.532 0 1.947 1.572 3.532 3.504 3.532s3.504-1.585 3.504-3.532c0-1.948-1.572-3.532-3.504-3.532zm0 5.306c-.97 0-1.76-.796-1.76-1.774s.79-1.774 1.76-1.774 1.76.796 1.76 1.774-.79 1.774-1.76 1.774zm9.873-5.306c-1.932 0-3.503 1.584-3.503 3.532 0 1.947 1.571 3.532 3.503 3.532 1.932 0 3.504-1.585 3.504-3.532 0-1.948-1.572-3.532-3.504-3.532zm0 5.306c-.97 0-1.76-.796-1.76-1.774s.79-1.774 1.76-1.774 1.76.796 1.76 1.774-.79 1.774-1.76 1.774zm9.871-5.306c-1.932 0-3.503 1.584-3.503 3.532 0 1.947 1.571 3.532 3.503 3.532 1.932 0 3.504-1.585 3.504-3.532 0-1.948-1.572-3.532-3.504-3.532zm0 5.306c-.97 0-1.76-.796-1.76-1.774s.79-1.774 1.76-1.774 1.76.796 1.76 1.774-.79 1.774-1.76 1.774zm9.873-5.306c-1.932 0-3.503 1.584-3.503 3.532 0 1.947 1.572 3.532 3.503 3.532 1.932 0 3.504-1.585 3.504-3.532 0-1.948-1.572-3.532-3.504-3.532zm0 5.306c-.97 0-1.76-.796-1.76-1.774s.79-1.774 1.76-1.774 1.76.796 1.76 1.774-.79 1.774-1.76 1.774zM19.206 36.234a.875.875 0 00-.872.88v1.969c0 .485.39.878.872.878a.875.875 0 00.872-.878v-1.97a.875.875 0 00-.872-.879zm21.588 0a.875.875 0 00-.872.88v1.969c0 .485.39.878.872.878a.875.875 0 00.872-.878v-1.97a.875.875 0 00-.872-.879zm-7.554 2.05a.867.867 0 00-1.231.083c-.49.564-1.221.888-2.008.888-.787 0-1.518-.324-2.008-.888a.867.867 0 00-1.23-.083.884.884 0 00-.083 1.24 4.38 4.38 0 003.321 1.488c1.29 0 2.5-.542 3.32-1.488a.884.884 0 00-.082-1.24z" fill="#017149"/><path d="M50.704 11.44V3.865c0-2.131-1.72-3.865-3.835-3.865H21.454a.875.875 0 00-.872.879c0 .485.39.879.872.879h25.415c1.153 0 2.091.945 2.091 2.107v7.486h-2.247v-1.56c0-1.476-1.192-2.678-2.657-2.678h-5.733c-1.465 0-2.657 1.202-2.657 2.678v1.56h-11.33v-1.56c0-1.476-1.191-2.678-2.656-2.678h-5.733c-1.465 0-2.657 1.202-2.657 2.678v1.56h-2.247V3.865c0-1.162.938-2.107 2.09-2.107h4.833a.875.875 0 00.872-.88.875.875 0 00-.872-.878h-4.833C11.02 0 9.3 1.734 9.3 3.865v7.575a4.402 4.402 0 00-3.496 4.314v35.98A4.402 4.402 0 009.3 56.048v1.11C9.3 58.725 10.564 60 12.12 60h3.342c1.554 0 2.82-1.275 2.82-2.842v-1.022h23.441v1.022c0 1.567 1.265 2.842 2.82 2.842h3.342c1.555 0 2.82-1.275 2.82-2.842v-1.11a4.402 4.402 0 003.496-4.315V15.754a4.402 4.402 0 00-3.496-4.314zM37.41 9.79c0-.507.41-.92.913-.92h5.733c.503 0 .913.413.913.92v1.56h-7.56V9.79zm-22.376 0c0-.507.41-.92.913-.92h5.733c.503 0 .913.413.913.92v1.56h-7.56V9.79zm1.502 47.367a1.08 1.08 0 01-1.075 1.084h-3.343a1.081 1.081 0 01-1.075-1.084v-1.022h5.493v1.022zm32.424 0a1.08 1.08 0 01-1.075 1.084h-3.343a1.081 1.081 0 01-1.076-1.084v-1.022h5.494v1.022zm.872-2.78H10.171c-1.447 0-2.624-1.186-2.624-2.645V15.754c0-1.458 1.177-2.645 2.624-2.645h39.661c1.447 0 2.624 1.187 2.624 2.645v35.98c0 1.458-1.177 2.644-2.624 2.644z" fill="#017149"/><path d="M49.095 23.639h-38.19a2.336 2.336 0 00-2.323 2.342v1.14c0 .98.602 1.821 1.452 2.17V47.72c0 1.917 1.547 3.476 3.448 3.476H46.52c1.901 0 3.448-1.56 3.448-3.476V29.29a2.345 2.345 0 001.452-2.17v-1.14a2.336 2.336 0 00-2.324-2.341zm.58 3.482c0 .322-.26.584-.58.584H42.38a.89.89 0 00-.873.88c0 .485.39.878.873.878h5.843V47.72c0 .947-.764 1.718-1.704 1.718H13.482c-.94 0-1.704-.77-1.704-1.718V29.463h27.114a.875.875 0 00.872-.879.892.892 0 00-.872-.879H10.906a.583.583 0 01-.58-.584v-1.14c0-.323.26-.585.58-.585h38.19c.32 0 .58.262.58.585v1.14z" fill="#017149"/></svg>