<svg width="60" height="60" fill="none" xmlns="http://www.w3.org/2000/svg"><path d="M50.769 0H9.23C6.755 0 4.74 2.03 4.74 4.527v54.341c0 .625.502 1.132 1.122 1.132h48.274c.62 0 1.123-.507 1.123-1.132V4.527C55.26 2.03 53.245 0 50.769 0zM6.986 57.737v-46.42h38.193c.62 0 1.123-.507 1.123-1.132 0-.625-.503-1.132-1.123-1.132H6.986V4.527A2.257 2.257 0 019.23 2.263h41.538a2.257 2.257 0 012.245 2.264v4.526H49.68c-.62 0-1.122.507-1.122 1.132 0 .625.502 1.131 1.122 1.131h3.333v46.42H6.986z" fill="#017149"/><path d="M30 15.844c-10.24 0-18.57 8.397-18.57 18.718S19.76 53.28 30 53.28c10.239 0 18.57-8.397 18.57-18.718S40.238 15.844 30 15.844zm0 35.173c-9.002 0-16.325-7.382-16.325-16.455 0-9.073 7.323-16.455 16.325-16.455 6.835 0 12.701 4.257 15.13 10.278h-1.027c-.48 0-.942.077-1.376.218-2.28-4.943-7.247-8.186-12.727-8.186-7.738 0-14.033 6.346-14.033 14.145 0 7.8 6.295 14.145 14.033 14.145 5.48 0 10.446-3.243 12.727-8.186a4.44 4.44 0 001.376.218h1.026C42.701 46.76 36.835 51.017 30 51.017zm12.852-12.926a2.265 2.265 0 01-.995-1.878v-3.301a2.266 2.266 0 01.995-1.879 2.22 2.22 0 011.25-.385h1.754a16.562 16.562 0 010 7.827h-1.753c-.463 0-.893-.141-1.25-.384zm-2.037 1.2c-1.856 4.307-6.11 7.153-10.815 7.153-6.5 0-11.788-5.33-11.788-11.882 0-6.551 5.288-11.881 11.788-11.881 4.705 0 8.959 2.845 10.815 7.153a4.528 4.528 0 00-1.203 3.078v3.3c0 1.188.457 2.27 1.203 3.079zM48.524 5.67a2.245 2.245 0 00-2.234-2.252 2.245 2.245 0 00-2.233 2.251 2.245 2.245 0 002.233 2.252 2.245 2.245 0 002.234-2.252zM39.6 3.418a2.245 2.245 0 00-2.233 2.251 2.245 2.245 0 002.234 2.252 2.245 2.245 0 002.233-2.252 2.245 2.245 0 00-2.233-2.251zM21.627 4.54H11.523c-.62 0-1.123.506-1.123 1.13 0 .626.503 1.132 1.123 1.132h10.104c.62 0 1.123-.506 1.123-1.131s-.503-1.132-1.123-1.132zm6.642 0h-2.164c-.62 0-1.123.506-1.123 1.13 0 .626.503 1.132 1.123 1.132h2.164c.62 0 1.122-.506 1.122-1.131s-.502-1.132-1.122-1.132z" fill="#017149"/><path d="M29.999 24.896c-5.287 0-9.589 4.336-9.589 9.666 0 .625.503 1.131 1.123 1.131s1.122-.506 1.122-1.131c0-4.082 3.295-7.402 7.344-7.402.62 0 1.123-.507 1.123-1.132 0-.625-.503-1.131-1.123-1.131z" fill="#017149"/></svg>