<svg width="60" height="60" fill="none" xmlns="http://www.w3.org/2000/svg"><g clip-path="url(#clip0_0_160)" fill="#017149"><path d="M31.898.233c-.45 0-.87.222-1.124.592-.744 1.083-18.21 26.669-18.21 39.609 0 10.66 8.673 19.333 19.334 19.333 10.66 0 19.333-8.673 19.333-19.333 0-12.94-17.466-38.526-18.21-39.609a1.363 1.363 0 00-1.123-.592zm0 56.807c-9.157 0-16.606-7.45-16.606-16.606 0-10.292 12.705-30.437 16.606-36.379 3.9 5.942 16.605 26.086 16.605 36.379 0 9.157-7.449 16.606-16.605 16.606z"/><path d="M30.533 52.039c0 .753.61 1.364 1.364 1.364 7.151 0 12.97-5.818 12.97-12.969a1.364 1.364 0 10-2.728 0c0 5.647-4.595 10.241-10.242 10.241-.753 0-1.364.61-1.364 1.364zM58.637 5.757h-2.65v-2.65a1.364 1.364 0 10-2.727 0v2.65h-2.65a1.364 1.364 0 100 2.727h2.65v2.65a1.364 1.364 0 102.727 0v-2.65h2.65a1.364 1.364 0 100-2.727zM9.391 46.82h-2.65v-2.65a1.364 1.364 0 10-2.727 0v2.65h-2.65a1.364 1.364 0 100 2.727h2.65v2.65a1.364 1.364 0 102.727 0v-2.65h2.65a1.364 1.364 0 100-2.728z"/></g><defs><clipPath id="clip0_0_160"><path fill="#fff" d="M0 0h60v60H0z"/></clipPath></defs></svg>