<svg width="60" height="60" fill="none" xmlns="http://www.w3.org/2000/svg"><path d="M59.121 54.493h-7.585a5.739 5.739 0 001.58-3.968 5.742 5.742 0 00-1.694-4.086 5.78 5.78 0 00-2.707-1.526 5.79 5.79 0 00-2.79.033L38.84 46.74l.766-5.016a41.672 41.672 0 012.345-8.284l.008-.023 1.938-5.291a10.967 10.967 0 00-1.93-10.844l-6.781-8L32.44 4.63a1.765 1.765 0 00-2.005-.814 1.822 1.822 0 00-.435.182 1.823 1.823 0 00-.434-.182 1.764 1.764 0 00-2.006.814l-2.743 4.65-4.553 5.313a.879.879 0 001.334 1.143l3.996-4.66 1.69 1.636-3.523 4.554a11 11 0 00-1.534 10.69l.724 1.85a6.83 6.83 0 006.397 4.365h1.304a6.83 6.83 0 006.398-4.365l.724-1.85a11 11 0 00-1.535-10.69l-3.523-4.554.261-.252 1.426-1.381 6.223 7.34a9.206 9.206 0 011.62 9.102l-1.934 5.28a43.423 43.423 0 00-2.443 8.648l-.88 5.759-6.77 1.714-7.225-1.83-.863-5.643-.003-.017a43.44 43.44 0 00-2.441-8.635l-1.964-5.209a9.187 9.187 0 011.621-9.222.879.879 0 00-1.335-1.144 10.944 10.944 0 00-1.931 10.986l1.967 5.216.006.016a41.67 41.67 0 012.344 8.283l.749 4.901-6.633-1.679a5.788 5.788 0 00-2.79-.032 5.782 5.782 0 00-2.707 1.525 5.742 5.742 0 00-1.693 4.087c0 1.489.56 2.89 1.579 3.967H.879a.879.879 0 100 1.758h24.655a.879.879 0 100-1.758H12.83a.88.88 0 00-.242-.067c-1.008-.127-1.727-.453-2.331-1.056a3.995 3.995 0 01-1.178-2.844 4.022 4.022 0 013.062-3.905 4.027 4.027 0 011.938.03L30 50.68h.005l6.366 1.612v2.2h-7.32a.879.879 0 000 1.758H59.12a.879.879 0 000-1.757zM30.88 5.519a.128.128 0 01.034-.014s.005.005.013.018l2.431 4.121-1.46 1.415-.255.247a5.103 5.103 0 01-.763-2.687V5.52zm-1.805.003l.009-.014a.116.116 0 01.036.006s.002.006.002.021V8.62c0 .957-.266 1.885-.763 2.687l-.07-.068-1.645-1.594 2.431-4.122zm5.775 12.82a9.234 9.234 0 011.288 8.974l-.724 1.849a5.083 5.083 0 01-4.761 3.248h-1.304a5.083 5.083 0 01-4.76-3.248l-.725-1.85a9.234 9.234 0 011.288-8.973l3.993-5.162c.33-.371.616-.774.856-1.2.24.426.526.829.856 1.2l3.993 5.162zM33.8 49.828l12.558-3.178a4.025 4.025 0 011.939-.03 4.022 4.022 0 011.884 6.749c-.809.809-1.81 1.124-3.572 1.124h-.981a4.58 4.58 0 00-4.5-3.764H37.36l-3.56-.9zm4.33 2.66h2.998a2.82 2.82 0 012.696 2.005h-5.695v-2.006z" fill="#017149"/><path d="M30 18.697a3.827 3.827 0 00-3.822 3.823v3.874A3.827 3.827 0 0030 30.218a3.827 3.827 0 003.823-3.824V22.52A3.827 3.827 0 0030 18.697zm2.066 7.697a2.068 2.068 0 01-2.065 2.066 2.068 2.068 0 01-2.066-2.066V22.52c0-1.138.927-2.065 2.066-2.065 1.139 0 2.065.927 2.065 2.065v3.874z" fill="#017149"/></svg>