<svg width="60" height="60" fill="none" xmlns="http://www.w3.org/2000/svg"><g clip-path="url(#clip0_0_100)"><path d="M59.709 21.914a1.009 1.009 0 00-.853-.283l-6.44.939-.78-8.91-10.523 4.907c-.88.38-1.755.85-2.613 1.394a18.7 18.7 0 00-1.823-3.047L30 7.379l-6.66 9.51a18.925 18.925 0 00-1.838 3.073 18.41 18.41 0 00-2.587-1.382l-10.55-4.92-.779 8.91-6.441-.939A.998.998 0 00.01 22.765l1.412 9.697c1.314 9.018 9.72 17.423 18.735 18.735l9.052 1.32.005.03.051-.022.59.086a1.022 1.022 0 00.29 0l.61-.089.041.017.003-.023 9.041-1.318c9.018-1.313 17.422-9.718 18.734-18.734l1.414-9.697a.991.991 0 00-.28-.853zm-17.777-1.52l7.96-3.713.542 6.178-1.274.185a18.2 18.2 0 00-1.51.294 20.144 20.144 0 00-3.338 1.104l-.227.1c-.994.44-1.972.964-2.926 1.568l-.16.103c-.166.107-.333.208-.497.32a24.008 24.008 0 00-.234-1.318c-.026-.128-.059-.254-.087-.38a23.445 23.445 0 00-.234-.966c-.053-.201-.111-.398-.169-.596a25.703 25.703 0 00-.211-.671c-.08-.24-.158-.48-.244-.714l-.022-.065a16.752 16.752 0 012.631-1.43zM10.11 16.68l7.988 3.725c.877.377 1.75.854 2.604 1.418l-.026.077a22.68 22.68 0 00-.233.68c-.078.234-.152.469-.222.705-.056.192-.112.383-.164.577a23.13 23.13 0 00-.239.984c-.027.123-.058.244-.084.368-.09.436-.169.875-.235 1.32-.16-.11-.325-.21-.487-.314a22.642 22.642 0 00-3.095-1.678c-.075-.034-.15-.066-.226-.099a19.986 19.986 0 00-4.85-1.4l-1.273-.185.543-6.178zm10.34 32.538C12.246 48.023 4.6 40.376 3.403 32.172l-1.219-8.37 5.229.762 3.142.457c.458.067.914.161 1.367.267.165.04.33.085.496.13a19.218 19.218 0 011.463.455c.201.071.4.152.6.232a21.19 21.19 0 015.204 3.043c3.166 2.5 5.605 5.803 6.939 9.267.025.065.052.13.076.195.18.485.332.973.468 1.462.027.099.06.196.086.295.146.567.265 1.134.348 1.7l1.22 8.37-8.373-1.22zm10.332-9.22a18.22 18.22 0 00-.357 1.781l-.21 1.45-.018-.165-.219 1.459-.4-2.744a18.216 18.216 0 00-.357-1.782c-.07-.283-.163-.563-.247-.844-.087-.29-.168-.581-.269-.868a20.09 20.09 0 00-.432-1.11c-.073-.177-.143-.354-.221-.528a22.075 22.075 0 00-.771-1.555c-.25-.46-.515-.914-.8-1.361l-.05-.078a24.638 24.638 0 00-4.196-4.934c-.204-.186-.405-.373-.614-.552-.09-.077-.172-.161-.263-.236.028-.285.058-.57.096-.852.02-.15.034-.301.058-.45.08-.517.179-1.029.296-1.534.02-.086.045-.169.066-.254.108-.44.227-.876.362-1.305.03-.1.065-.198.098-.297.144-.434.299-.862.47-1.283.578-1.419 1.296-2.737 2.16-3.895l5.04-7.195 5.055 7.22a17.22 17.22 0 011.904 3.28l.044.107c.066.151.124.31.188.464.174.429.334.866.48 1.308.032.096.065.192.095.289.135.428.253.862.36 1.301.02.088.047.174.068.262.117.504.214 1.014.295 1.53.024.151.038.305.059.457.038.282.068.565.095.849-.094.077-.177.163-.27.242-.2.172-.393.352-.59.53a24.621 24.621 0 00-4.218 4.958c-.014.022-.03.044-.043.066a22.933 22.933 0 00-1.573 2.923c-.078.171-.146.344-.218.517-.153.372-.305.742-.435 1.12-.099.284-.18.572-.266.859-.087.28-.182.563-.252.85zM56.6 32.173c-1.195 8.204-8.842 15.85-17.045 17.046l-8.37 1.22 1.22-8.37c.082-.566.202-1.133.348-1.699.026-.1.06-.2.087-.3.135-.486.286-.973.466-1.456.024-.066.05-.131.077-.197.209-.544.44-1.086.703-1.619 1.407-2.858 3.56-5.53 6.221-7.636l.013-.01a21.158 21.158 0 015.207-3.044c.198-.079.396-.16.596-.232a17.428 17.428 0 011.462-.455c.166-.044.332-.09.498-.13.455-.106.91-.2 1.368-.267l3.141-.457 5.23-.761-1.222 8.367z" fill="#017149"/></g><defs><clipPath id="clip0_0_100"><path fill="#fff" d="M0 0h60v60H0z"/></clipPath></defs></svg>